<?xml version="1.0" encoding="UTF-8" standalone="no"?>
<svg
   version="1.1"
   id="Layer_1"
   x="0px"
   y="0px"
   width="1108.496"
   viewBox="0 0 1108.496 269.41684"
   enable-background="new 0 0 1156 343"
   xml:space="preserve"
   sodipodi:docname="logo (2).svg"
   inkscape:version="1.4 (86a8ad7, 2024-10-11)"
   height="269.41684"
   xmlns:inkscape="http://www.inkscape.org/namespaces/inkscape"
   xmlns:sodipodi="http://sodipodi.sourceforge.net/DTD/sodipodi-0.dtd"
   xmlns="http://www.w3.org/2000/svg"
   xmlns:svg="http://www.w3.org/2000/svg"><defs
   id="defs34" /><sodipodi:namedview
   id="namedview34"
   pagecolor="#ffffff"
   bordercolor="#000000"
   borderopacity="0.25"
   inkscape:showpageshadow="2"
   inkscape:pageopacity="0.0"
   inkscape:pagecheckerboard="0"
   inkscape:deskcolor="#d1d1d1"
   inkscape:zoom="2.8284271"
   inkscape:cx="-26.516504"
   inkscape:cy="194.27759"
   inkscape:window-width="1920"
   inkscape:window-height="1017"
   inkscape:window-x="-8"
   inkscape:window-y="-8"
   inkscape:window-maximized="1"
   inkscape:current-layer="Layer_1" />
<g
   inkscape:groupmode="layer"
   id="layer1"
   inkscape:label="Layer 1"
   transform="translate(-5.417718,-60.086112)" /><path
   fill="#ffffff"
   opacity="1"
   stroke="none"
   d="m 0,267.31535 c 3.194982,-2.0733 5.872997,-3.81113 9.478665,-5.38086 h 28.783137 c 0,-6.03018 0.06962,-10.61023 -0.08113,-15.18302 -0.01579,-0.47892 -11.037752,0.98907 -7.349383,-1.80636 0.629679,-0.47724 7.424961,-0.60713 7.431033,-1.0315 1.622387,-1.69019 1.963149,-2.3197 3.718119,-3.65634 l -1.987323,-1.59637 c -0.921615,-3.96542 -2.076123,-6.57407 -2.287293,-10.57697 -0.419327,-7.9487 0.179798,-15.94961 -0.200405,-23.90225 -0.482208,-10.0863 3.717312,-15.97188 13.945866,-14.31734 0.183105,0.0296 0.415985,-0.24841 0.639656,-0.39189 -0.27763,-0.19134 -0.502835,-0.4611 -0.771458,-0.51513 -10.226364,-2.05791 -14.738628,-4.93367 -13.781269,-16.12459 0.282974,-3.30779 0.07456,-6.66062 0.03599,-9.99216 -0.05062,-4.37208 2.624717,-7.58327 6.062088,-8.7485 14.861343,-5.03781 29.84959,-9.74257 44.944988,-14.02848 6.095691,-1.73069 14.255559,3.05284 13.087749,10.45905 -0.51265,3.25116 0.24865,6.69395 -0.1777,9.97047 -0.45316,3.48262 -1.627958,6.87134 -2.410058,9.9915 0.7833,3.00441 2.276368,6.27916 2.383128,9.59848 0.32597,10.1354 0.12775,20.28795 0.11505,30.43383 -0.008,6.78375 -3.491098,10.34512 -10.129097,10.39572 -1.482849,0.0113 -2.965866,0.002 -5.738335,0.002 7.640785,3.21795 16.567372,3.35189 15.994122,14.37515 6.41121,-1.17484 12.44687,-2.13852 18.41892,-3.40268 16.09856,-3.40768 31.85228,-7.97623 45.45025,-17.61572 7.69061,-5.45181 14.76934,-11.78549 21.96782,-17.90528 3.8482,-3.27159 5.10347,-7.34082 1.91673,-11.85771 -2.14777,-3.04423 -4.19519,-6.23433 -6.77428,-8.88568 -9.2009,-9.45865 -18.97446,-18.38399 -27.8334,-28.14456 -8.20026,-9.03485 -14.05736,-19.34113 -15.45873,-32.08551 -1.33714,-12.16025 1.17711,-22.914752 10.30477,-30.734042 8.23434,-7.05405 17.87197,-12.47005 27.63476,-18.73466 12.38674,-6.28795 24.77348,-12.5759 37.87229,-19.08221 l 62.108,-29.386476 13.39725,26.701076 c -1.53055,0.97098 -2.83243,1.79692 -4.91273,2.74134 -3.92761,1.63058 -7.96014,3.04952 -11.76193,4.9339 -9.14633,4.53341 -18.18454,9.28491 -28.00247,14.11523 -0.38469,0.31117 -0.7301,0.69718 -1.15977,0.92263 -13.38002,7.02058 -27.06159,13.52902 -40.05356,21.2049 -8.86806,5.23938 -16.87,11.982082 -25.07393,18.293422 -4.5049,3.46565 -7.09146,10.05106 -5.03427,13.37151 2.63037,4.24557 5.63501,8.47034 9.27978,11.83621 10.35631,9.5639 21.69094,18.12501 31.55332,28.15036 8.84706,8.99324 11.54463,20.65875 8.56707,33.15392 -4.23474,17.77093 -16.57714,29.25366 -30.92308,39.05639 -13.95716,9.53702 -29.52783,15.577 -45.7039,19.89646 -13.20605,3.52636 -26.61056,6.39224 -40.03555,8.99041 -10.984538,2.12589 -22.116907,3.51316 -33.208772,5.04682 -4.37426,0.60482 -8.881476,0.36465 -13.208596,1.15982 -2.185525,0.40162 -4.323975,1.05943 -6.464051,1.77645 -1.795024,0.60141 -13.926346,1.37314 -15.877398,-1.05839 M 198.51629,219.36523 c 4.0521,-4.40491 8.60826,-8.44907 12.06547,-13.27969 12.29068,-17.17318 10.25824,-33.3904 -5.59688,-47.35949 -5.7492,-5.06532 -11.91253,-9.67727 -17.47998,-14.92761 -5.91597,-5.57907 -11.84245,-11.2812 -16.85815,-17.64394 -5.29264,-6.71405 -4.79059,-13.50256 0.61659,-20.11653 2.92966,-3.58346 6.22812,-7.071412 9.97379,-9.741792 9.87712,-7.04167 19.66929,-14.37864 30.26556,-20.19468 16.45245,-9.03036 33.54526,-16.89373 50.36264,-25.25978 6.35074,-3.15927 12.69043,-6.34078 19.36133,-9.67517 -2.49021,-5.014654 -4.75836,-9.58222 -7.45694,-15.016493 -29.65959,14.512843 -59.15747,28.700013 -88.39928,43.396663 -9.47771,4.76339 -18.44292,10.61898 -27.34566,16.42985 -6.54777,4.27378 -10.22116,10.79674 -11.74476,18.475682 -2.2679,11.43034 1.26172,21.74109 7.85963,30.53421 6.65212,8.86537 14.73551,16.66627 22.29486,24.83824 5.53531,5.98392 11.75531,11.40976 16.74318,17.80707 7.42543,9.52367 6.39043,16.75916 -2.49817,24.85715 -16.90503,15.40136 -37.29695,24.1477 -58.92871,30.29492 -9.8743,2.80603 -19.96893,4.83673 -29.06424,7.0047 -1.4409,5.37097 -2.748588,10.24545 -4.120298,15.35855 12.694608,-2.69266 26.135198,-5.05371 39.309208,-8.44904 21.4998,-5.5411 42.43766,-12.62091 60.64081,-27.33282 M 80.731627,176.06446 c -0.379577,-2.47755 -0.693367,-4.96739 -1.1539,-7.42981 -0.719063,-3.84466 0.776917,-6.0493 4.6819,-6.40284 5.431855,-0.49178 7.317345,-3.46904 6.348702,-8.63787 -0.200928,-1.07215 -0.20179,-2.18179 -0.322304,-3.59628 -14.409676,4.44711 -28.486717,8.79157 -42.452797,13.10178 v 12.84138 c 14.248535,4.31574 28.303627,8.57288 42.504349,12.87413 v -9.94099 c -3.065605,-0.88085 -5.932656,-1.70464 -9.60595,-2.8095 m 9.843842,67.77106 c 0.0064,-1.33002 -0.170532,-2.69168 0.05246,-3.98434 0.784637,-4.5484 -0.967354,-6.71106 -5.53479,-7.99714 -8.774727,-2.4707 -17.33223,-5.7095 -25.992432,-8.59182 -3.687004,-1.22711 -7.405682,-2.35901 -11.337013,-3.60617 v 10.20257 c 10.574875,3.06836 21.029899,6.1019 32.116012,9.31858 -11.237617,3.14618 -21.705227,6.07678 -32.105018,8.98837 v 10.60214 c 3.114483,-0.9682 5.9682,-1.80157 8.786598,-2.74097 11.295044,-3.76467 22.579132,-7.56225 34.014183,-12.19122 M 61.09043,208.92643 H 90.3627 v -9.59646 H 47.887248 v 9.59646 H 61.09043"
   id="path1"
   sodipodi:nodetypes="cccsscccsssccsscssscsssccsssssssscccccsccssssssssssssccssssssssccssssssssccsccssscccccccssscccccsccccccc" />



<path
   fill="#c13a28"
   opacity="1"
   stroke="none"
   d="m 487.13147,0.00637176 c 0.47382,15.59645824 0.379,31.12585424 0.52683,46.95007624 67.90286,0 134.18179,0 200.74222,0.38272 -3.8418,2.7674 -7.92517,5.22464 -12.09735,7.52041 -6.8772,3.78428 -13.81195,7.46417 -20.72242,11.18805 -46.64428,-0.0446 -93.28857,-0.0908 -139.93286,-0.13269 -9.46856,-0.009 -18.9371,-0.001 -28.97607,-0.001 0,46.392682 0,92.426602 0,138.728362 -5.82834,0 -11.08814,0 -16.92612,0 0,-46.04634 0,-92.08038 0,-138.419712 -27.82434,0 -55.07712,0 -82.90591,0 0,45.914462 0,91.948352 0,138.335572 -5.9444,0 -11.32236,0 -17.1026,0 0,-46.03117 0,-91.94571 0,-138.626552 -40.95673,0 -81.52024,0 -122.52571,-0.0758 8.63984,-4.73936 17.67805,-9.49086 26.82438,-14.02427 3.80179,-1.88438 7.83432,-3.30332 12.15113,-4.99314 27.47387,-0.0592 54.55856,-0.0592 82.39132,-0.0592 0,-15.348256 0,-30.567304 -0.004,-46.24398224 6.02805,-0.504753 12.06015,-0.551876 18.55225,-0.07092 0.81537,15.73210924 1.17081,30.93612724 1.52347,46.02193124 27.00515,0 53.37945,0 79.91943,0 0,-15.754795 0,-31.081943 0,-46.40908424 6.03308,-0.04712 12.06616,-0.09423 18.5621,-0.07044 z"
   id="path5" />
<path
   fill="#c13a28"
   opacity="1"
   stroke="none"
   d="m 754.58362,46.779548 c 12.81702,0.0448 25.63404,0.1256 38.45105,0.12843 61.59851,0.0136 123.19696,0.006 184.79547,0.006 1.98688,0 3.97382,-1e-5 6.74811,-1e-5 0,-15.456789 0,-30.689195 -0.004,-46.37922524 6.36127,-0.504749 12.72666,-0.551872 19.55215,-0.0709 0.46,15.71510324 0.46,30.90210724 0.46,46.42834824 14.7155,0 28.7797,0 42.8829,0.37239 -3.5957,6.28864 -2.8764,12.45534 -1.0144,18.68774 -14.1192,0 -28.2383,0 -42.7714,0 0,46.395069 0,92.323389 0,138.605609 -6.45779,0 -12.50353,0 -18.97204,0 0,-46.0504 0,-91.97872 0,-138.686769 -87.1687,0 -173.92078,0 -260.96667,-0.38934 10.08368,-6.49369 20.4613,-12.59804 30.83886,-18.70239 z"
   id="path6" />
<path
   fill="#5e3b20"
   opacity="1"
   stroke="none"
   d="m 198.24595,219.59492 c -17.93281,14.4819 -38.87067,21.56171 -60.37047,27.10281 -13.17401,3.39533 -26.6146,5.75638 -39.309208,8.44904 1.37171,-5.1131 2.679398,-9.98758 4.120298,-15.35855 9.09531,-2.16797 19.18994,-4.19867 29.06424,-7.0047 21.63176,-6.14722 42.02368,-14.89356 58.92871,-30.29492 8.8886,-8.09799 9.9236,-15.33348 2.49817,-24.85715 -4.98787,-6.39731 -11.20787,-11.82315 -16.74318,-17.80707 -7.55935,-8.17197 -15.64274,-15.97287 -22.29486,-24.83824 -6.59791,-8.79312 -10.12753,-19.10387 -7.85963,-30.53421 1.5236,-7.678942 5.19699,-14.201902 11.74476,-18.475682 8.90274,-5.81087 17.86795,-11.66646 27.34566,-16.42985 29.24181,-14.69665 58.73969,-28.88382 88.39928,-43.396663 2.69858,5.434273 4.96673,10.001839 7.45694,15.016493 -6.6709,3.33439 -13.01059,6.5159 -19.36133,9.67517 -16.81738,8.36605 -33.91019,16.22942 -50.36264,25.25978 -10.59627,5.81604 -20.38844,13.15301 -30.26556,20.19468 -3.74567,2.67038 -7.04413,6.158332 -9.97379,9.741792 -5.40718,6.61397 -5.90923,13.40248 -0.61659,20.11653 5.0157,6.36274 10.94218,12.06487 16.85815,17.64394 5.56745,5.25034 11.73078,9.86229 17.47998,14.92761 15.85512,13.96909 17.88756,30.18631 5.59688,47.35949 -3.45721,4.83062 -8.01337,8.87478 -12.33581,13.5097 z"
   id="path7" />


<path
   fill="#c13b29"
   opacity="1"
   stroke="none"
   d="m 176.96097,65.986738 c -18.80044,0.0631 -37.22886,0.0631 -56.01658,0.0631 0,-6.46856 0,-12.50294 0,-19.14456 30.92918,0 61.78773,0 93.09755,0.0772 -11.93548,6.36521 -24.32222,12.65316 -37.08097,19.00422 z"
   id="path10" />
<path
   fill="#c23e2d"
   opacity="1"
   stroke="none"
   d="m 81.134742,176.205 c 3.270179,0.96432 6.13723,1.78811 9.202835,2.66896 0,3.21618 0,6.31277 0,9.94099 -14.200722,-4.30125 -28.255814,-8.55839 -42.504349,-12.87413 0,-4.25282 0,-8.34285 0,-12.84138 13.96608,-4.31021 28.043121,-8.65467 42.452797,-13.10178 0.120514,1.41449 0.121376,2.52413 0.322304,3.59628 0.968643,5.16883 -0.916847,8.14609 -6.348702,8.63787 -3.904983,0.35354 -5.400963,2.55818 -4.6819,6.40284 0.460533,2.46242 0.774323,4.95226 1.557015,7.57035 m -8.600296,-3.10395 c 0,-2.5728 0,-5.1456 0,-8.06903 -5.658249,1.5858 -10.728501,3.00682 -15.798756,4.42783 0.0363,0.34932 0.0726,0.69864 0.108902,1.04796 5.10445,1.13183 10.208904,2.26365 15.689854,2.59324 z"
   id="path11" />
<path
   fill="#c33f2e"
   opacity="1"
   stroke="none"
   d="m 90.502013,244.25727 c -11.361595,4.20722 -22.645683,8.0048 -33.940727,11.76947 -2.818398,0.9394 -5.672115,1.77277 -8.786598,2.74097 0,-3.59503 0,-6.86734 0,-10.60214 10.399791,-2.91159 20.867401,-5.84219 32.105018,-8.98837 -11.086113,-3.21668 -21.541137,-6.25022 -32.116012,-9.31858 0,-3.33197 0,-6.45181 0,-10.20257 3.931331,1.24716 7.650009,2.37906 11.337013,3.60617 8.660202,2.88232 17.217705,6.12112 25.992432,8.59182 4.567436,1.28608 6.319427,3.44874 5.53479,7.99714 -0.222992,1.29266 -0.04602,2.65432 -0.125916,4.40609 z"
   id="path12" />
<path
   fill="#c13b29"
   opacity="1"
   stroke="none"
   d="m 1076.7367,46.894188 c 10.256,0.005 20.512,0.011 31.2256,0.0116 0.5051,6.02864 0.5526,12.06217 0.5289,18.55834 -10.0005,0.4605 -19.9297,0.45835 -30.3864,0.0858 2.5806,-6.62127 1.1716,-12.66453 -1.3681,-18.65582 z"
   id="path13" />
<path
   fill="#c33f2e"
   opacity="1"
   stroke="none"
   d="m 60.592078,208.92643 c -4.463093,0 -8.427837,0 -12.70483,0 0,-3.29931 0,-6.33053 0,-9.59646 14.20013,0 28.221912,0 42.475452,0 0,3.1727 0,6.09155 0,9.59646 -9.794326,0 -19.533294,0 -29.770622,0 z"
   id="path14" />
<path
   fill="#5f3b21"
   opacity="1"
   stroke="none"
   d="m 9.014844,261.85044 c 6.008276,-5.3265 12.32,-10.79052 19.057199,-15.66671 1.848835,-1.33811 6.814968,-0.88535 9.779396,-1.24891 0.254425,0.0675 0.27731,0.40839 0.297978,1.19166 0.120686,4.57367 0.112385,9.77783 0.112385,15.80801 -10.073395,0 -19.428265,0 -29.246958,-0.084 z"
   id="path15"
   sodipodi:nodetypes="cscscc" />

<path
   fill="#5c381d"
   opacity="1"
   stroke="none"
   d="m 831.56885,93.950768 c 0.0793,-1.69371 0.14698,-3.01247 0.23249,-4.67949 5.7315,0 11.3175,0 17.34527,0 0,38.316802 0,76.666292 0,115.329932 -5.70538,0 -11.2757,0 -17.39148,0 0,-4.37217 0,-8.60611 0,-13.98505 -3.36743,2.42662 -5.83789,4.21236 -8.31384,5.99036 -26.05158,18.70727 -64.02643,13.92935 -85.49713,-10.8387 -21.5185,-24.82306 -20.43048,-64.27996 3.005,-88.046242 21.82874,-22.1369 57.95435,-24.65207 82.52417,-7.89384 2.53699,1.73038 5.38178,3.00949 8.09552,4.12303 m -0.077,38.131212 c -6.63892,-21.53781 -25.11231,-34.636172 -46.16443,-34.418082 -26.0246,0.26963 -49.57178,26.990592 -43.20258,55.604222 4.31342,19.37778 24.02155,37.13816 47.4599,35.83396 17.40808,-0.96866 37.36066,-15.33441 40.80707,-32.35758 1.55719,-7.69157 0.85211,-15.84114 1.10004,-24.66252 z"
   id="path17" />
<path
   fill="#fcfbfb"
   opacity="1"
   stroke="none"
   d="m 754.71747,46.458378 c -10.51141,6.42552 -20.88903,12.52987 -31.46899,18.94071 -15.5661,9.70054 -31.14539,18.7657 -46.19714,28.63554 -6.91639,4.53527 -13.01435,10.418842 -19.07496,16.124932 -4.28698,4.03624 -4.09192,9.56285 0.8526,14.31652 9.4787,9.11303 19.331,17.85007 29.24671,26.49256 9.87237,8.60469 18.03845,18.45497 18.28125,32.0208 0.19311,10.78486 -3.81818,20.6808 -10.67212,29.43412 -16.28772,20.80115 -38.98163,31.14829 -63.25995,38.26593 -16.33984,4.79032 -33.16455,8.19361 -49.97125,11.04508 -15.09241,2.56061 -30.42279,4.00705 -45.70917,5.0603 -17.63025,1.21472 -35.32697,1.46735 -52.99597,2.1062 -1.03034,0.0372 -2.07089,-0.20828 -4.43143,-0.46792 7.81635,-4.98221 14.4913,-9.28803 21.21823,-13.51105 7.49188,-4.70322 15.00904,-9.36755 22.56897,-13.96024 1.47034,-0.89328 3.16028,-1.88186 4.79566,-1.97131 9.24139,-0.50531 18.52069,-0.43924 27.7434,-1.14148 28.13556,-2.14221 56.21961,-5.16449 81.83271,-18.14874 8.4046,-4.26065 15.73694,-10.74198 23.25891,-16.59427 3.81061,-2.96475 7.06079,-6.68924 10.35883,-10.26004 2.36614,-2.56181 1.64587,-5.81236 -0.21845,-7.95905 -7.01611,-8.07866 -13.82794,-16.47413 -21.76086,-23.58569 -13.0622,-11.70973 -24.43415,-24.52335 -28.17218,-41.98898 -3.37873,-15.78679 0.46203,-28.419302 14.97668,-40.008782 5.99866,-4.78978 12.90387,-8.44433 19.5293,-12.93554 7.04297,-4.04423 13.97772,-7.72412 20.85492,-11.5084 4.17218,-2.29577 8.25555,-4.75301 12.59332,-7.43888 13.93793,-7.69608 27.64697,-15.117764 41.39062,-22.474759 7.07831,-3.788994 14.21814,-7.462799 22.00843,-11.54396 4.15722,8.355186 8.26977,16.487762 12.16967,24.721046 0.2984,0.630005 -0.64587,2.335543 -1.4588,2.915243 -2.6054,1.85798 -5.42077,3.42169 -8.28894,5.42011 m -120.3963,43.73856 c -7.80884,9.37991 -9.97803,20.129582 -5.55737,31.302112 2.94958,7.45465 7.06189,14.7592 12.05096,21.01701 5.98133,7.50229 13.58442,13.69101 20.23023,20.69065 5.25549,5.53529 10.68951,11.04448 15.02118,17.27636 5.12487,7.37303 3.77063,13.67823 -2.34522,20.24884 -17.45019,18.7479 -38.89563,30.31461 -63.67267,36.19944 -24.44,5.80471 -49.27258,7.84326 -74.294,8.38537 -2.63678,0.0571 -5.71131,-0.25299 -7.81745,0.94867 -8.14544,4.64737 -15.98083,9.83817 -25.23681,15.64539 2.62085,0 3.70498,0.0261 4.78753,-0.004 30.50818,-0.84356 60.81684,-3.60003 90.77948,-9.58838 23.07074,-4.61093 45.62403,-10.80471 66.31696,-22.42794 11.48749,-6.45252 21.40027,-14.76346 28.55365,-25.94571 10.31219,-16.12006 8.18066,-31.49091 -6.07123,-44.28334 -6.07172,-5.44996 -12.63141,-10.36536 -18.58856,-15.93119 -5.82111,-5.4387 -11.65442,-11.00364 -16.57434,-17.23062 -5.55762,-7.03413 -5.0138,-14.06268 0.78345,-20.93674 2.98467,-3.53903 6.2644,-7.091442 10.08538,-9.617412 16.49445,-10.90407 33.13343,-21.59926 49.92322,-32.04353 14.38037,-8.94543 29.03729,-17.44616 43.90241,-26.341321 -2.64606,-5.263366 -4.98127,-9.908554 -7.86377,-15.642227 -32.61121,18.478088 -64.78736,36.546508 -96.75989,54.968128 -6.14386,3.53991 -11.48853,8.46682 -17.65314,13.31023 z"
   id="path18" />
<path
   fill="#5c381d"
   opacity="1"
   stroke="none"
   d="m 315.31391,86.913888 c -17.21237,0.008 -32.96301,3.49361 -46.8017,13.487752 -11.1326,8.03982 -18.0742,18.70117 -19.94438,32.43426 -1.13651,8.34546 -0.59891,13.36688 2.14766,19.93862 16.70926,-8.98381 33.36603,-17.9394 50.44726,-27.1232 2.48606,4.58525 4.82532,8.89979 7.58741,13.99417 -16.92832,9.13218 -33.86911,18.2711 -50.81583,27.41322 10.19977,16.68187 33.86948,22.22484 50.12408,16.98351 17.92215,-5.77909 30.74289,-17.5244 41.20032,-32.50608 1.02353,-1.46637 2.00193,-2.96423 3.80899,-5.64619 3.35965,6.78207 6.44229,12.70235 9.13422,18.79526 0.36523,0.82667 -1.05322,2.65405 -1.93952,3.78857 -10.62414,13.59905 -24.06027,23.549 -39.85156,30.36159 -9.84179,4.24594 -20.08603,6.75058 -30.87695,6.04852 -13.53818,-0.88077 -25.6543,-5.42331 -36.4447,-13.8651 -13.81084,-10.80481 -21.21642,-25.37558 -24.1213,-42.0442 -1.97465,-11.33087 0.0262,-22.70615 4.37044,-33.60771 8.03997,-20.175802 22.9661,-33.025102 43.06586,-39.631342 10.24094,-3.36592 21.17331,-4.63587 31.80237,-6.80798 2.89468,-0.59154 4.49228,0.79076 5.6654,3.46324 1.9957,4.54644 4.37662,8.9238 6.99213,14.16703 -2.05212,0.14349 -3.57208,0.24978 -5.5502,0.35606 z"
   id="path19" />
<path
   fill="#5c381d"
   opacity="1"
   stroke="none"
   d="m 565.22773,71.567178 c 6.26336,-0.99814 12.12353,-1.93617 18.01678,-2.56435 1.27857,-0.13629 3.35285,0.43775 3.90546,1.36963 3.01172,5.07857 5.66223,10.37132 8.65283,15.99626 -7.021,0.54947 -13.42926,0.71772 -19.73627,1.60535 -21.24554,2.9901 -39.1596,11.57719 -48.85394,31.965012 -5.0069,10.53 -6.59473,19.88303 -1.83252,32.94545 16.75952,-9.01272 33.47131,-17.99977 50.69855,-27.26404 2.55285,4.78565 4.93927,9.25924 7.52203,14.10088 -17.07782,9.17084 -33.81286,18.15762 -50.91455,27.34132 6.31024,9.83512 15.30292,15.36046 26.04095,17.74749 19.74445,4.38913 36.17646,-3.10787 50.31238,-16.09459 6.87262,-6.31389 12.53022,-13.95037 19.13861,-21.44263 2.81708,5.28227 5.94995,10.99899 8.85529,16.82912 0.31848,0.63913 -0.42413,2.156 -1.0918,2.8822 -5.23852,5.69728 -10.05212,11.94765 -16.00164,16.79376 -11.08991,9.03317 -23.40491,16.08754 -37.62098,19.35008 -19.62597,4.50415 -37.51373,0.79682 -53.37951,-11.45811 -19.43268,-15.01009 -27.7425,-35.36777 -25.13254,-59.40949 2.32721,-21.43708 13.60196,-37.965392 32.04147,-49.469072 8.96405,-5.59234 18.57642,-9.33284 29.3794,-11.22427 z"
   id="path20" />
<path
   fill="#5c381d"
   opacity="1"
   stroke="none"
   d="m 913.42676,82.795388 c 13.2641,-2.01141 25.09125,0.47722 35.63538,8.15134 12.76745,9.292292 18.24237,22.408322 18.44025,37.711102 0.30377,23.49086 0.0799,46.98856 0.0799,70.48336 0,1.64733 0,3.29464 0,5.35461 -5.91638,0 -11.49036,0 -18,0 0,-1.75238 0,-3.65582 0,-5.55924 0,-22.49501 -0.35638,-44.99763 0.12353,-67.4824 0.32764,-15.35417 -11.92785,-29.58632 -27.9082,-31.520832 -9.89843,-1.19824 -25.31543,7.865492 -28.68908,17.125142 -0.54584,1.4981 -0.50415,3.25937 -0.50599,4.89923 -0.0289,25.66095 -0.0203,51.32194 -0.0203,76.98292 0,1.79038 0,3.58075 0,5.66108 -6.14239,0 -11.71301,0 -17.64343,0 0,-38.40387 0,-76.63648 0,-115.687812 3.76184,0 7.60711,-0.51994 11.2514,0.11452 6.44013,1.12121 11.68121,-1.5387 17.22388,-3.93703 2.95868,-1.28024 6.36859,-1.51778 10.01263,-2.29599 z"
   id="path21" />
<path
   fill="#5c381d"
   opacity="1"
   stroke="none"
   d="m 1053.7437,79.293588 c 5.7744,-0.88211 11.4431,-1.31162 17.4968,-1.77026 0,42.763902 0,84.624202 0,126.937982 -5.6232,0 -11.3083,0 -17.6024,0 0,-41.62954 0,-83.17233 0.1056,-125.167722 z"
   id="path22" />
<path
   fill="#fdfbfb"
   opacity="1"
   stroke="none"
   d="m 1076.5991,46.573098 c 2.6773,6.31238 4.0863,12.35564 1.0453,18.99223 -6.781,12.20438 -21.6417,12.5179 -31.0533,0.71323 -1.9982,-6.55852 -2.7175,-12.72522 0.8782,-19.01386 8.65,-10.351466 19.3474,-10.587405 29.1298,-0.6916 m -20.7231,4.23145 c -3.2371,4.51332 -3.5051,8.91425 -0.5164,12.19699 3.0428,3.34182 6.8197,4.00371 10.832,2.02775 4.1683,-2.05291 5.2001,-5.70018 4.4786,-10.05167 -0.817,-4.92597 -8.1025,-9.51595 -14.7942,-4.17307 z"
   id="path23" />
<path
   fill="#fffefe"
   opacity="1"
   stroke="none"
   d="m 97.421002,39.883752 c 1.65722,2.214206 3.879448,4.324506 3.995168,6.544606 0.50572,9.70243 -0.26391,19.40783 0.91306,29.16781 0.58134,4.82074 -1.51824,9.96478 -2.457788,15.2614 0.448738,1.78392 1.329818,4.26427 1.656398,6.8156 0.54001,4.218702 0.78318,8.479442 1.04503,12.729032 1.11327,18.06729 -12.979632,26.44919 -28.038424,24.33948 -11.878731,-1.66416 -17.933979,-9.644 -19.429711,-17.60074 -7.50328,0.0214 -11.252895,-4.76578 -11.517837,-14.84433 -0.244061,-9.284162 3.241009,-14.548922 12.208607,-14.691452 -0.306733,-6.49196 -0.615128,-13.01915 -0.954464,-20.20122 -9.334729,-4.4248 -12.614106,-11.01319 -9.287701,-20.54233 1.644489,-4.71099 7.177017,-8.896313 12.144962,-8.927525 11.151032,-0.07004 22.304276,-0.113876 33.452896,0.06434 1.964371,0.03139 3.910674,1.192543 6.269804,1.88533 m -8.476675,78.666507 c 2.958741,-4.6008 1.754128,-8.84906 0.311173,-12.64173 0.559906,-2.46579 1.119804,-4.93159 1.706955,-7.517381 -13.007187,0 -25.074539,0 -37.145867,0 0,2.615911 0,4.880531 0,7.568181 4.614212,0 9.000779,0 13.528145,0 -3.288643,8.61989 -0.989174,14.76501 6.132866,16.92192 5.694046,1.72444 10.859016,0.92342 15.466728,-4.33099 M 84.537528,67.770609 c -0.551186,4.47269 2.174644,9.82178 -4.06897,14.01685 0,-6.24755 0,-11.43468 0,-16.54847 -7.566505,-0.62336 -11.855331,1.36972 -13.955314,6.15175 -1.986184,4.52287 -0.857689,10.3244 2.689537,13.8266 3.79319,3.74506 9.959999,4.78861 14.791504,2.50301 5.390853,-2.5502 7.69786,-9.46033 6.226196,-17.42034 -0.604698,-3.27069 -1.961861,-4.285 -5.682953,-2.5294 m 5.217575,-18.77016 c -7.920464,0 -15.840935,0 -23.838531,0 0,2.72384 0,5.08474 0,7.40415 8.386535,0 16.421287,0 24.546989,0 0,-2.49714 0,-4.6445 -0.708458,-7.40415 m -27.638802,1.09577 c -1.573997,-2.25985 -3.720203,-3.22667 -5.751209,-1.09211 -0.978882,1.02877 -1.383606,3.38973 -0.914257,4.75863 0.36673,1.0696 3.370735,2.42446 3.669045,2.12495 1.39376,-1.39945 2.255546,-3.32873 2.996421,-5.79147 z"
   id="path24" />
<path
   fill="#fcf4f3"
   opacity="1"
   stroke="none"
   d="m 72.346198,173.50218 c -5.292702,-0.73072 -10.397156,-1.86254 -15.501606,-2.99437 -0.0363,-0.34932 -0.0726,-0.69864 -0.108902,-1.04796 5.070255,-1.42101 10.140507,-2.84203 15.798756,-4.42783 0,2.92343 0,5.49623 -0.188248,8.47016 z"
   id="path25" />

<path
   fill="#5e3b20"
   opacity="1"
   stroke="none"
   d="m 634.54676,89.918768 c 5.93902,-4.56524 11.28369,-9.49215 17.42755,-13.03206 31.97253,-18.42162 64.14868,-36.49004 96.75989,-54.968128 2.8825,5.733673 5.21771,10.378861 7.86377,15.642227 -14.86512,8.895161 -29.52204,17.395891 -43.90241,26.341321 -16.78979,10.44427 -33.42877,21.13946 -49.92322,32.04353 -3.82098,2.52597 -7.10071,6.078382 -10.08538,9.617412 -5.79725,6.87406 -6.34107,13.90261 -0.78345,20.93674 4.91992,6.22698 10.75323,11.79192 16.57434,17.23062 5.95715,5.56583 12.51684,10.48123 18.58856,15.93119 14.25189,12.79243 16.38342,28.16328 6.07123,44.28334 -7.15338,11.18225 -17.06616,19.49319 -28.55365,25.94571 -20.69293,11.62323 -43.24622,17.81701 -66.31696,22.42794 -29.96264,5.98835 -60.2713,8.74482 -90.77948,9.58838 -1.08255,0.0299 -2.16668,0.004 -4.78753,0.004 9.25598,-5.80722 17.09137,-10.99802 25.23681,-15.64539 2.10614,-1.20166 5.18067,-0.89157 7.81745,-0.94867 25.02142,-0.54211 49.854,-2.58066 74.294,-8.38537 24.77704,-5.88483 46.22248,-17.45154 63.67267,-36.19944 6.11585,-6.57061 7.47009,-12.87581 2.34522,-20.24884 -4.33167,-6.23188 -9.76569,-11.74107 -15.02118,-17.27636 -6.64581,-6.99964 -14.2489,-13.18836 -20.23023,-20.69065 -4.98907,-6.25781 -9.10138,-13.56236 -12.05096,-21.01701 -4.42066,-11.17253 -2.25147,-21.922202 5.78296,-31.580282 z"
   id="path27" />
<path
   fill="#5f3c22"
   opacity="1"
   stroke="none"
   d="m 1056.1591,50.537298 c 6.4086,-5.07563 13.6941,-0.48565 14.5111,4.44032 0.7215,4.35149 -0.3103,7.99876 -4.4786,10.05167 -4.0123,1.97596 -7.7892,1.31407 -10.832,-2.02775 -2.9887,-3.28274 -2.7207,-7.68367 0.7995,-12.46424 z"
   id="path28" />
<path
   fill="#c3402f"
   opacity="1"
   stroke="none"
   d="m 88.731666,118.86961 c -4.395051,4.93506 -9.560021,5.73608 -15.254067,4.01164 -7.12204,-2.15691 -9.421509,-8.30203 -6.132866,-16.92192 -4.527366,0 -8.913933,0 -13.528145,0 0,-2.68765 0,-4.95227 0,-7.568182 12.071328,0 24.13868,0 37.145867,0 -0.587151,2.585792 -1.147049,5.051592 -1.706955,7.517382 1.442955,3.79267 2.647568,8.04093 -0.523834,12.96108 m -17.003144,-6.88919 c 1.866844,4.24971 5.385437,4.60257 9.1241,3.44125 3.808853,-1.1831 5.04071,-6.36459 1.84536,-8.14799 -2.203484,-1.22982 -5.443131,-1.44544 -7.967232,-0.91436 -1.324936,0.27877 -2.10688,3.13819 -3.002228,5.6211 z"
   id="path29" />
<path
   fill="#c3402e"
   opacity="1"
   stroke="none"
   d="m 84.873893,67.463498 c 3.384727,-1.44849 4.74189,-0.43418 5.346588,2.83651 1.471664,7.96001 -0.835343,14.87014 -6.226196,17.42034 -4.831505,2.2856 -10.998314,1.24205 -14.791504,-2.50301 -3.547226,-3.5022 -4.675721,-9.30373 -2.689537,-13.8266 2.099983,-4.78203 6.388809,-6.77511 13.955314,-6.15175 0,5.11379 0,10.30092 0,16.54847 6.243614,-4.19507 3.517784,-9.54416 4.405335,-14.32396 m -9.403679,11.61308 c 0,-2.21398 0,-4.42793 0,-8.09354 -2.182404,1.91916 -3.965866,2.74225 -4.256027,3.93012 -0.367783,1.50563 0.246772,3.41493 0.94342,4.91534 0.204178,0.43976 2.128067,0.081 3.312607,-0.75192 z"
   id="path30" />
<path
   fill="#c3412f"
   opacity="1"
   stroke="none"
   d="m 90.109336,49.306598 c 0.354225,2.4535 0.354225,4.60086 0.354225,7.098 -8.125702,0 -16.160454,0 -24.546989,0 0,-2.31941 0,-4.68031 0,-7.40415 7.997596,0 15.918067,0 24.192764,0.30615 z"
   id="path31" />
<path
   fill="#c54635"
   opacity="1"
   stroke="none"
   d="m 62.271834,50.457648 c -0.896408,2.10131 -1.758194,4.03059 -3.151954,5.43004 -0.29831,0.29951 -3.302315,-1.05535 -3.669045,-2.12495 -0.469349,-1.3689 -0.06462,-3.72986 0.914257,-4.75863 2.031006,-2.13456 4.177212,-1.16774 5.906742,1.45354 z"
   id="path32" />
<path
   fill="#fcf6f5"
   opacity="1"
   stroke="none"
   d="m 71.66262,111.58598 c 0.96125,-2.08847 1.743194,-4.94789 3.06813,-5.22666 2.524101,-0.53108 5.763748,-0.31546 7.967232,0.91436 3.19535,1.7834 1.963493,6.96489 -1.84536,8.14799 -3.738663,1.16132 -7.257256,0.80846 -9.190002,-3.83569 z"
   id="path33" />
<path
   fill="#f6e4e1"
   opacity="1"
   stroke="none"
   d="m 75.445792,79.496678 c -1.160118,0.41286 -3.084007,0.77158 -3.288185,0.33182 -0.696648,-1.50041 -1.311203,-3.40971 -0.94342,-4.91534 0.290161,-1.18787 2.073623,-2.01096 4.256027,-3.93012 0,3.66561 0,5.87956 -0.02442,8.51364 z"
   id="path34" />
</svg>
