<?xml version="1.0" encoding="UTF-8" standalone="no"?>
<svg
   version="1.1"
   id="Layer_1"
   x="0px"
   y="0px"
   width="620.75946"
   viewBox="0 0 620.75948 272.90448"
   enable-background="new 0 0 1156 343"
   xml:space="preserve"
   sodipodi:docname="logo (2).svg"
   inkscape:version="1.4 (86a8ad7, 2024-10-11)"
   height="272.90448"
   xmlns:inkscape="http://www.inkscape.org/namespaces/inkscape"
   xmlns:sodipodi="http://sodipodi.sourceforge.net/DTD/sodipodi-0.dtd"
   xmlns="http://www.w3.org/2000/svg"
   xmlns:svg="http://www.w3.org/2000/svg"><defs
   id="defs34" /><sodipodi:namedview
   id="namedview34"
   pagecolor="#ffffff"
   bordercolor="#000000"
   borderopacity="0.25"
   inkscape:showpageshadow="2"
   inkscape:pageopacity="0.0"
   inkscape:pagecheckerboard="0"
   inkscape:deskcolor="#d1d1d1"
   inkscape:zoom="0.70710678"
   inkscape:cx="313.95541"
   inkscape:cy="127.98633"
   inkscape:window-width="1920"
   inkscape:window-height="1017"
   inkscape:window-x="-8"
   inkscape:window-y="-8"
   inkscape:window-maximized="1"
   inkscape:current-layer="layer1" />
<g
   inkscape:groupmode="layer"
   id="layer1"
   inkscape:label="Layer 1"
   transform="translate(-1.058808,-60.086442)" />



<path
   fill="#c13a28"
   opacity="1"
   stroke="none"
   d="m 419.49038,0.00604165 c 0.47382,15.59645835 0.379,31.12585435 0.52683,46.95007635 67.90286,0 134.18179,0 200.74222,0.38272 -3.8418,2.7674 -7.92517,5.22464 -12.09735,7.52041 -6.8772,3.78428 -13.81195,7.46417 -20.72242,11.18805 -46.64428,-0.0446 -93.28857,-0.0908 -139.93286,-0.13269 -9.46856,-0.009 -18.9371,-0.001 -28.97607,-0.001 V 204.64197 H 402.10461 V 66.222258 H 319.1987 V 204.55783 H 302.0961 V 65.931278 c -40.95673,0 -81.52024,0 -122.52571,-0.0758 8.63984,-4.73936 17.67805,-9.49086 26.82438,-14.02427 3.80179,-1.88438 7.83432,-3.30332 12.15113,-4.99314 27.47387,-0.0592 54.55856,-0.0592 82.39132,-0.0592 0,-15.348256 0,-30.567304 -0.004,-46.24398235 6.02805,-0.504753 12.06015,-0.551876 18.55225,-0.07092 0.81537,15.73210935 1.17081,30.93612735 1.52347,46.02193135 h 79.91943 V 0.07681265 c 6.03308,-0.04712 12.06616,-0.09423 18.5621,-0.07044 z"
   id="path5"
   sodipodi:nodetypes="cccscccccccccccsccccccccc" />




<path
   fill="#c13b29"
   opacity="1"
   stroke="none"
   d="m 181.31988,65.986408 c -18.80044,0.0631 -37.22886,0.0631 -56.01658,0.0631 0,-6.46856 0,-12.50294 0,-19.14456 30.92918,0 61.78773,0 93.09755,0.0772 -11.93548,6.36521 -24.32222,12.65316 -37.08097,19.00422 z"
   id="path10" />







<path
   fill="#fcfbfb"
   opacity="1"
   stroke="none"
   d="m 560.07638,50.458048 c -10.51141,6.42552 -20.88903,12.52987 -31.46899,18.94071 -15.5661,9.70054 -31.14539,18.7657 -46.19714,28.63554 -6.91639,4.535272 -13.01435,10.418842 -19.07496,16.124932 -4.28698,4.03624 -4.09192,9.56285 0.8526,14.31652 9.4787,9.11303 19.331,17.85007 29.24671,26.49256 9.87237,8.60469 18.03845,18.45497 18.28125,32.0208 0.19311,10.78486 -3.81818,20.6808 -10.67212,29.43412 -16.28772,20.80115 -38.98163,31.14829 -63.25995,38.26593 -16.33984,4.79032 -33.16455,8.19361 -49.97125,11.04508 -15.09241,2.56061 -30.42279,4.00705 -45.70917,5.0603 -17.63025,1.21472 -35.32697,1.46735 -52.99597,2.1062 -1.03034,0.0372 -2.07089,-0.20828 -4.43143,-0.46792 7.81635,-4.98221 14.4913,-9.28803 21.21823,-13.51105 7.49188,-4.70322 15.00904,-9.36755 22.56897,-13.96024 1.47034,-0.89328 3.16028,-1.88186 4.79566,-1.97131 9.24139,-0.50531 18.52069,-0.43924 27.7434,-1.14148 28.13556,-2.14221 56.21961,-5.16449 81.83271,-18.14874 8.4046,-4.26065 15.73694,-10.74198 23.25891,-16.59427 3.81061,-2.96475 7.06079,-6.68924 10.35883,-10.26004 2.36614,-2.56181 1.64587,-5.81236 -0.21845,-7.95905 -7.01611,-8.07866 -13.82794,-16.47413 -21.76086,-23.58569 -13.0622,-11.70973 -24.43415,-24.52335 -28.17218,-41.98898 -3.37873,-15.78679 0.46203,-28.419302 14.97668,-40.008782 5.99866,-4.78978 12.90387,-8.44433 19.5293,-12.93554 7.04297,-4.04423 13.97772,-7.72412 20.85492,-11.5084 4.17218,-2.29577 8.25555,-4.75301 12.59332,-7.43888 13.93793,-7.69608 27.64697,-15.117764 41.39062,-22.474759 7.07831,-3.788994 14.21814,-7.462799 22.00843,-11.54396 4.15722,8.355186 8.26977,16.487762 12.16967,24.721046 0.2984,0.630005 -0.64587,2.335543 -1.4588,2.915243 -2.6054,1.85798 -5.42077,3.42169 -8.28894,5.42011 m -120.3963,43.73856 c -7.80884,9.379912 -9.97803,20.129582 -5.55737,31.302112 2.94958,7.45465 7.06189,14.7592 12.05096,21.01701 5.98133,7.50229 13.58442,13.69101 20.23023,20.69065 5.25549,5.53529 10.68951,11.04448 15.02118,17.27636 5.12487,7.37303 3.77063,13.67823 -2.34522,20.24884 -17.45019,18.7479 -38.89563,30.31461 -63.67267,36.19944 -24.44,5.80471 -49.27258,7.84326 -74.294,8.38537 -2.63678,0.0571 -5.71131,-0.25299 -7.81745,0.94867 -8.14544,4.64737 -15.98083,9.83817 -25.23681,15.64539 2.62085,0 3.70498,0.0261 4.78753,-0.004 30.50818,-0.84356 60.81684,-3.60003 90.77948,-9.58838 23.07074,-4.61093 45.62403,-10.80471 66.31696,-22.42794 11.48749,-6.45252 21.40027,-14.76346 28.55365,-25.94571 10.31219,-16.12006 8.18066,-31.49091 -6.07123,-44.28334 -6.07172,-5.44996 -12.63141,-10.36536 -18.58856,-15.93119 -5.82111,-5.4387 -11.65442,-11.00364 -16.57434,-17.23062 -5.55762,-7.03413 -5.0138,-14.06268 0.78345,-20.93674 2.98467,-3.53903 6.2644,-7.09144 10.08538,-9.617412 16.49445,-10.90407 33.13343,-21.59926 49.92322,-32.04353 14.38037,-8.94543 29.03729,-17.44616 43.90241,-26.341321 -2.64606,-5.263366 -4.98127,-9.908554 -7.86377,-15.642227 -32.61121,18.478088 -64.78736,36.546508 -96.75989,54.968128 -6.14386,3.53991 -11.48853,8.46682 -17.65314,13.31023 z"
   id="path18" />








<path
   fill="#5e3b20"
   opacity="1"
   stroke="none"
   d="m 439.90567,93.918438 c 5.93902,-4.56524 11.28369,-9.49215 17.42755,-13.03206 31.97253,-18.42162 64.14868,-36.49004 96.75989,-54.968128 2.8825,5.733673 5.21771,10.378861 7.86377,15.642227 -14.86512,8.895161 -29.52204,17.395891 -43.90241,26.341321 -16.78979,10.44427 -33.42877,21.13946 -49.92322,32.04353 -3.82098,2.525972 -7.10071,6.078382 -10.08538,9.617412 -5.79725,6.87406 -6.34107,13.90261 -0.78345,20.93674 4.91992,6.22698 10.75323,11.79192 16.57434,17.23062 5.95715,5.56583 12.51684,10.48123 18.58856,15.93119 14.25189,12.79243 16.38342,28.16328 6.07123,44.28334 -7.15338,11.18225 -17.06616,19.49319 -28.55365,25.94571 -20.69293,11.62323 -43.24622,17.81701 -66.31696,22.42794 -29.96264,5.98835 -60.2713,8.74482 -90.77948,9.58838 -1.08255,0.0299 -2.16668,0.004 -4.78753,0.004 9.25598,-5.80722 17.09137,-10.99802 25.23681,-15.64539 2.10614,-1.20166 5.18067,-0.89157 7.81745,-0.94867 25.02142,-0.54211 49.854,-2.58066 74.294,-8.38537 24.77704,-5.88483 46.22248,-17.45154 63.67267,-36.19944 6.11585,-6.57061 7.47009,-12.87581 2.34522,-20.24884 -4.33167,-6.23188 -9.76569,-11.74107 -15.02118,-17.27636 -6.64581,-6.99964 -14.2489,-13.18836 -20.23023,-20.69065 -4.98907,-6.25781 -9.10138,-13.56236 -12.05096,-21.01701 -4.42066,-11.17253 -2.25147,-21.9222 5.78296,-31.580282 z"
   id="path27" /><path
   fill="#fcfbfb"
   opacity="1"
   stroke="none"
   d="m 275.40042,50.394164 c -10.51141,6.42552 -20.88903,12.52987 -31.46899,18.94071 -15.5661,9.70054 -31.14539,18.7657 -46.19714,28.63554 -6.91639,4.535276 -13.01435,10.418846 -19.07496,16.124936 -4.28698,4.03624 -4.09192,9.56285 0.8526,14.31652 9.4787,9.11303 19.331,17.85007 29.24671,26.49256 9.87237,8.60469 18.03845,18.45497 18.28125,32.0208 0.19311,10.78485 -3.81818,20.68079 -10.67212,29.43411 -16.28772,20.80115 -38.98163,31.14829 -63.25995,38.26593 -16.33984,4.79032 -33.16455,8.19361 -49.97125,11.04508 -15.09241,2.56061 -30.42279,4.00705 -45.70917,5.0603 -17.63025,1.21472 -35.32697,1.46735 -52.99597,2.1062 -1.03034,0.0372 -2.07089,-0.20828 -4.43143,-0.46792 7.81635,-4.98221 14.4913,-9.28803 21.21823,-13.51105 7.49188,-4.70322 15.00904,-9.36755 22.56897,-13.96024 1.47034,-0.89328 3.16028,-1.88186 4.79566,-1.97131 9.24139,-0.50531 18.52069,-0.43924 27.7434,-1.14148 28.13556,-2.14221 56.21961,-5.16449 81.83271,-18.14874 8.4046,-4.26065 15.73694,-10.74198 23.25891,-16.59427 3.81061,-2.96475 7.06079,-6.68924 10.35883,-10.26004 2.36614,-2.56181 1.64587,-5.81235 -0.21845,-7.95904 -7.01611,-8.07866 -13.82794,-16.47413 -21.76086,-23.58569 -13.0622,-11.70973 -24.43415,-24.52335 -28.17218,-41.98898 -3.37873,-15.78679 0.46203,-28.419306 14.97668,-40.008786 5.99866,-4.78978 12.90387,-8.44433 19.5293,-12.93554 7.04297,-4.04423 13.97772,-7.72412 20.85492,-11.5084 4.17218,-2.29577 8.25555,-4.75301 12.59332,-7.43888 13.93793,-7.69608 27.64697,-15.117764 41.39062,-22.474759 7.07831,-3.788994 14.21814,-7.462799 22.00843,-11.54396 4.15722,8.355186 8.26977,16.487762 12.16967,24.721046 0.2984,0.630005 -0.64587,2.335543 -1.4588,2.915243 -2.6054,1.85798 -5.42077,3.42169 -8.28894,5.42011 m -120.3963,43.73856 c -7.80884,9.379916 -9.97803,20.129586 -5.55737,31.302116 2.94958,7.45465 7.06189,14.7592 12.05096,21.01701 5.98133,7.50229 13.58442,13.69101 20.23023,20.69065 5.25549,5.53529 10.68951,11.04448 15.02118,17.27636 5.12487,7.37303 3.77063,13.67822 -2.34522,20.24883 -17.45019,18.7479 -38.89563,30.31461 -63.67267,36.19944 -24.44,5.80471 -49.27258,7.84326 -74.294,8.38537 -2.63678,0.0571 -5.71131,-0.25299 -7.81745,0.94867 -8.14544,4.64737 -15.98083,9.83817 -25.23681,15.64539 2.62085,0 3.70498,0.0261 4.78753,-0.004 30.50818,-0.84356 60.81684,-3.60003 90.77948,-9.58838 23.07074,-4.61093 45.62403,-10.80471 66.31696,-22.42794 11.48749,-6.45252 21.40027,-14.76346 28.55365,-25.94571 10.31219,-16.12005 8.18066,-31.4909 -6.07123,-44.28333 -6.07172,-5.44996 -12.63141,-10.36536 -18.58856,-15.93119 -5.82111,-5.4387 -11.65442,-11.00364 -16.57434,-17.23062 -5.55762,-7.03413 -5.0138,-14.06268 0.78345,-20.93674 2.98467,-3.53903 6.2644,-7.09144 10.08538,-9.617416 16.49445,-10.90407 33.13343,-21.59926 49.92322,-32.04353 14.38037,-8.94543 29.03729,-17.44616 43.90241,-26.341321 -2.64606,-5.263366 -4.98127,-9.908554 -7.86377,-15.642227 -32.61121,18.478088 -64.78736,36.546508 -96.75989,54.968128 -6.14386,3.53991 -11.48853,8.46682 -17.65314,13.31023 z"
   id="path18-0" /><path
   fill="#5e3b20"
   opacity="1"
   stroke="none"
   d="m 155.22971,93.854554 c 5.93902,-4.56524 11.28369,-9.49215 17.42755,-13.03206 31.97253,-18.42162 64.14868,-36.49004 96.75989,-54.968128 2.8825,5.733673 5.21771,10.378861 7.86377,15.642227 -14.86512,8.895161 -29.52204,17.395891 -43.90241,26.341321 -16.78979,10.44427 -33.42877,21.13946 -49.92322,32.04353 -3.82098,2.525976 -7.10071,6.078386 -10.08538,9.617416 -5.79725,6.87406 -6.34107,13.90261 -0.78345,20.93674 4.91992,6.22698 10.75323,11.79192 16.57434,17.23062 5.95715,5.56583 12.51684,10.48123 18.58856,15.93119 14.25189,12.79243 16.38342,28.16328 6.07123,44.28333 -7.15338,11.18225 -17.06616,19.49319 -28.55365,25.94571 -20.69293,11.62323 -43.24622,17.81701 -66.31696,22.42794 -29.96264,5.98835 -60.2713,8.74482 -90.77948,9.58838 -1.08255,0.0299 -2.16668,0.004 -4.78753,0.004 9.25598,-5.80722 17.09137,-10.99802 25.23681,-15.64539 2.10614,-1.20166 5.18067,-0.89157 7.81745,-0.94867 25.02142,-0.54211 49.854,-2.58066 74.294,-8.38537 24.77704,-5.88483 46.22248,-17.45154 63.67267,-36.19944 6.11585,-6.57061 7.47009,-12.8758 2.34522,-20.24883 -4.33167,-6.23188 -9.76569,-11.74107 -15.02118,-17.27636 -6.64581,-6.99964 -14.2489,-13.18836 -20.23023,-20.69065 -4.98907,-6.25781 -9.10138,-13.56236 -12.05096,-21.01701 -4.42066,-11.17253 -2.25147,-21.9222 5.78296,-31.580286 z"
   id="path27-9" />







</svg>
